name analog
datacolumns 19
datarows 70
range 0.339 0.3735
endheader
time	ground_force_vx	ground_force_vy	ground_force_vz	ground_force_px	ground_force_py	ground_force_pz	l_ground_force_vx	l_ground_force_vy	l_ground_force_vz	l_ground_force_px	l_ground_force_py	l_ground_force_pz	ground_torque_x	ground_torque_y	ground_torque_z	l_ground_torque_x	l_ground_torque_y	l_ground_torque_z
0.339	-0.0	-0.0	-0.0	-0.0	-0.0	-0.0	1.536810040473938	6.35664176940918	-872.633056640625	-0.0	-0.0	-0.0	-0.0	-0.0	-0.0	302429.625	-18792.701171875	-2432.28271484375
0.3395	-0.0	-0.0	-0.0	-0.0	-0.0	-0.0	1.41937255859375	5.088717460632324	-871.9551391601562	-0.0	-0.0	-0.0	-0.0	-0.0	-0.0	301796.375	-18917.451171875	-2312.39990234375
0.34	-0.0	-0.0	-0.0	-0.0	-0.0	-0.0	1.5396063327789309	3.7949163913726807	-871.482421875	-0.0	-0.0	-0.0	-0.0	-0.0	-0.0	300986.0625	-18635.064453125	-2125.169921875
0.3405	-0.0	-0.0	-0.0	-0.0	-0.0	-0.0	1.3622804880142212	2.9745163917541504	-869.511962890625	-0.0	-0.0	-0.0	-0.0	-0.0	-0.0	300723.4375	-18667.9609375	-1897.8016357421875
0.341	-0.0	-0.0	-0.0	-0.0	-0.0	-0.0	1.210210919380188	1.9681971073150637	-867.2926025390625	-0.0	-0.0	-0.0	-0.0	-0.0	-0.0	299808.5625	-18327.900390625	-1848.42333984375
0.3415	-0.0	-0.0	-0.0	-0.0	-0.0	-0.0	0.9792906045913696	1.3248252868652344	-867.6417236328125	-0.0	-0.0	-0.0	-0.0	-0.0	-0.0	299424.59375	-18126.5234375	-1788.3104248046875
0.342	-0.0	-0.0	-0.0	-0.0	-0.0	-0.0	0.5642452836036682	1.1163415908813477	-866.0218505859375	-0.0	-0.0	-0.0	-0.0	-0.0	-0.0	298732.53125	-18033.509765625	-1781.5755615234375
0.3425	-0.0	-0.0	-0.0	-0.0	-0.0	-0.0	0.4114284217357635	0.2893175780773163	-864.291748046875	-0.0	-0.0	-0.0	-0.0	-0.0	-0.0	298008.78125	-17891.416015625	-1461.35107421875
0.343	-0.0	-0.0	-0.0	-0.0	-0.0	-0.0	0.1411608457565307	0.2368567138910293	-861.26171875	-0.0	-0.0	-0.0	-0.0	-0.0	-0.0	296800.375	-17494.81640625	-1414.2728271484375
0.3435	-0.0	-0.0	-0.0	-0.0	-0.0	-0.0	-0.0041578263044357	-0.6545916795730591	-858.5474853515625	-0.0	-0.0	-0.0	-0.0	-0.0	-0.0	295839.71875	-17252.310546875	-1473.9466552734375
0.34400000000000003	-0.0	-0.0	-0.0	-0.0	-0.0	-0.0	-0.4716657996177673	-1.023159742355347	-856.818115234375	-0.0	-0.0	-0.0	-0.0	-0.0	-0.0	294463.15625	-17162.20703125	-1435.33251953125
0.34450000000000003	-0.0	-0.0	-0.0	-0.0	-0.0	-0.0	-0.4806554615497589	-1.6781120300292969	-853.5830688476562	-0.0	-0.0	-0.0	-0.0	-0.0	-0.0	293353.90625	-17126.689453125	-1156.154541015625
0.34500000000000003	-0.0	-0.0	-0.0	-0.0	-0.0	-0.0	-0.0280037503689527	-2.152280330657959	-850.3129272460938	-0.0	-0.0	-0.0	-0.0	-0.0	-0.0	292057.4375	-16774.943359375	-810.85986328125
0.34550000000000003	-0.0	-0.0	-0.0	-0.0	-0.0	-0.0	0.4764021039009094	-2.5008161067962646	-845.8844604492188	-0.0	-0.0	-0.0	-0.0	-0.0	-0.0	290336.34375	-17115.66796875	-284.3085327148437
0.34600000000000003	-0.0	-0.0	-0.0	-0.0	-0.0	-0.0	0.5550878643989563	-3.197265625	-840.9765625	-0.0	-0.0	-0.0	-0.0	-0.0	-0.0	288505.90625	-16760.2734375	-159.7536163330078
0.34650000000000003	-0.0	-0.0	-0.0	-0.0	-0.0	-0.0	0.6156978011131287	-3.64887809753418	-838.4432983398438	-0.0	-0.0	-0.0	-0.0	-0.0	-0.0	286561.6875	-16906.876953125	197.85960388183597
0.34700000000000003	-0.0	-0.0	-0.0	-0.0	-0.0	-0.0	0.8539231419563293	-3.499828338623047	-834.056640625	-0.0	-0.0	-0.0	-0.0	-0.0	-0.0	285209.25	-17312.5	455.7756042480469
0.34750000000000003	-0.0	-0.0	-0.0	-0.0	-0.0	-0.0	1.1199344396591189	-3.9413161277771	-828.3408203125	-0.0	-0.0	-0.0	-0.0	-0.0	-0.0	283715.375	-17313.8515625	607.8557739257812
0.34800000000000003	-0.0	-0.0	-0.0	-0.0	-0.0	-0.0	1.6302447319030762	-4.184422969818115	-825.7893676757812	-0.0	-0.0	-0.0	-0.0	-0.0	-0.0	282249.75	-17620.96875	826.7969970703125
0.34850000000000003	-0.0	-0.0	-0.0	-0.0	-0.0	-0.0	2.107440710067749	-4.531867027282715	-820.8084716796875	-0.0	-0.0	-0.0	-0.0	-0.0	-0.0	280669.40625	-17941.060546875	1316.7830810546875
0.34900000000000003	-0.0	-0.0	-0.0	-0.0	-0.0	-0.0	2.91516637802124	-5.183578014373779	-819.3988647460938	-0.0	-0.0	-0.0	-0.0	-0.0	-0.0	279391.15625	-18474.44921875	1796.950439453125
0.34950000000000003	-0.0	-0.0	-0.0	-0.0	-0.0	-0.0	3.630779981613159	-6.033203601837158	-817.4970703125	-0.0	-0.0	-0.0	-0.0	-0.0	-0.0	278476.28125	-18676.251953125	2276.001953125
0.35000000000000003	-0.0	-0.0	-0.0	-0.0	-0.0	-0.0	3.6710500717163086	-6.291642665863037	-814.7608032226562	-0.0	-0.0	-0.0	-0.0	-0.0	-0.0	277782.90625	-18983.64453125	2535.970458984375
0.35050000000000003	-0.0	-0.0	-0.0	-0.0	-0.0	-0.0	3.330233097076416	-5.910858631134033	-813.0665283203125	-0.0	-0.0	-0.0	-0.0	-0.0	-0.0	276638.4375	-18980.685546875	2401.40576171875
0.35100000000000003	-0.0	-0.0	-0.0	-0.0	-0.0	-0.0	3.1663196086883545	-5.740909576416016	-810.0588989257812	-0.0	-0.0	-0.0	-0.0	-0.0	-0.0	276124.1875	-19017.451171875	2323.70703125
0.35150000000000003	-0.0	-0.0	-0.0	-0.0	-0.0	-0.0	2.981897592544556	-4.946014404296875	-809.7897338867188	-0.0	-0.0	-0.0	-0.0	-0.0	-0.0	275678.8125	-19144.21875	2104.654296875
0.352	-0.0	-0.0	-0.0	-0.0	-0.0	-0.0	2.9274559020996094	-4.40885066986084	-809.9248657226562	-0.0	-0.0	-0.0	-0.0	-0.0	-0.0	275907.90625	-19074.966796875	2246.35107421875
0.3525	-0.0	-0.0	-0.0	-0.0	-0.0	-0.0	3.2403783798217773	-4.035816192626953	-809.5759887695312	-0.0	-0.0	-0.0	-0.0	-0.0	-0.0	275967.5625	-19272.54296875	2454.332763671875
0.353	-0.0	-0.0	-0.0	-0.0	-0.0	-0.0	4.188854694366455	-3.8398706912994394	-809.9253540039062	-0.0	-0.0	-0.0	-0.0	-0.0	-0.0	275841.5625	-19538.4375	2605.93603515625
0.3535	-0.0	-0.0	-0.0	-0.0	-0.0	-0.0	4.470315456390381	-3.551941394805908	-808.149169921875	-0.0	-0.0	-0.0	-0.0	-0.0	-0.0	275950.71875	-19839.40625	2603.69482421875
0.354	-0.0	-0.0	-0.0	-0.0	-0.0	-0.0	4.682704925537109	-3.6211891174316406	-808.4545288085938	-0.0	-0.0	-0.0	-0.0	-0.0	-0.0	275584.5625	-20024.78125	2616.529052734375
0.3545	-0.0	-0.0	-0.0	-0.0	-0.0	-0.0	4.844076156616211	-3.3213605880737305	-807.0272216796875	-0.0	-0.0	-0.0	-0.0	-0.0	-0.0	275521.0	-20120.125	2767.6025390625
0.355	-0.0	-0.0	-0.0	-0.0	-0.0	-0.0	4.9862895011901855	-3.3911826610565186	-805.5656127929688	-0.0	-0.0	-0.0	-0.0	-0.0	-0.0	275187.5625	-20346.54296875	2737.9580078125
0.3555	-0.0	-0.0	-0.0	-0.0	-0.0	-0.0	5.376124382019043	-2.2165000438690186	-805.5980224609375	-0.0	-0.0	-0.0	-0.0	-0.0	-0.0	275042.90625	-20562.01953125	2566.568603515625
0.356	-0.0	-0.0	-0.0	-0.0	-0.0	-0.0	5.75748872756958	-1.3692492246627808	-805.1436767578125	-0.0	-0.0	-0.0	-0.0	-0.0	-0.0	275385.40625	-20727.478515625	2569.77490234375
0.3565	-0.0	-0.0	-0.0	-0.0	-0.0	-0.0	6.298465728759766	-0.8213967084884644	-805.8767700195312	-0.0	-0.0	-0.0	-0.0	-0.0	-0.0	275698.8125	-21220.896484375	2745.224609375
0.357	-0.0	-0.0	-0.0	-0.0	-0.0	-0.0	6.475887298583984	-0.3887253999710083	-804.5498046875	-0.0	-0.0	-0.0	-0.0	-0.0	-0.0	275885.1875	-21345.142578125	2653.4873046875
0.3575	-0.0	-0.0	-0.0	-0.0	-0.0	-0.0	6.262725830078125	-0.0883216857910156	-805.107177734375	-0.0	-0.0	-0.0	-0.0	-0.0	-0.0	275624.625	-21566.783203125	2543.588134765625
0.358	-0.0	-0.0	-0.0	-0.0	-0.0	-0.0	6.351341247558594	0.2292869091033935	-804.79443359375	-0.0	-0.0	-0.0	-0.0	-0.0	-0.0	275699.5	-22131.548828125	2406.775390625
0.3585	-0.0	-0.0	-0.0	-0.0	-0.0	-0.0	6.413541793823242	0.5753253102302551	-804.5869140625	-0.0	-0.0	-0.0	-0.0	-0.0	-0.0	275890.78125	-22401.734375	2431.5576171875
0.359	-0.0	-0.0	-0.0	-0.0	-0.0	-0.0	6.466128349304199	1.0763458013534546	-805.0015869140625	-0.0	-0.0	-0.0	-0.0	-0.0	-0.0	276122.28125	-22491.439453125	2327.467529296875
0.3595	-0.0	-0.0	-0.0	-0.0	-0.0	-0.0	6.794532775878906	1.41314697265625	-805.67431640625	-0.0	-0.0	-0.0	-0.0	-0.0	-0.0	276512.53125	-23044.09375	2393.74267578125
0.36	-0.0	-0.0	-0.0	-0.0	-0.0	-0.0	6.814704418182373	2.161745309829712	-805.4127807617188	-0.0	-0.0	-0.0	-0.0	-0.0	-0.0	276688.53125	-23478.0703125	2390.67138671875
0.3605	-0.0	-0.0	-0.0	-0.0	-0.0	-0.0	7.3051910400390625	2.623629093170166	-806.2721557617188	-0.0	-0.0	-0.0	-0.0	-0.0	-0.0	276849.84375	-23775.806640625	2298.732421875
0.361	-0.0	-0.0	-0.0	-0.0	-0.0	-0.0	7.576950550079346	2.535354852676392	-804.6917724609375	-0.0	-0.0	-0.0	-0.0	-0.0	-0.0	276869.21875	-24158.001953125	2421.036376953125
0.3615	-0.0	-0.0	-0.0	-0.0	-0.0	-0.0	7.514400959014893	2.608463287353516	-803.6446533203125	-0.0	-0.0	-0.0	-0.0	-0.0	-0.0	276188.875	-24452.591796875	2396.529052734375
0.362	-0.0	-0.0	-0.0	-0.0	-0.0	-0.0	7.706993103027344	2.483804702758789	-802.0440063476562	-0.0	-0.0	-0.0	-0.0	-0.0	-0.0	275751.96875	-24716.1875	2452.29541015625
0.3625	-0.0	-0.0	-0.0	-0.0	-0.0	-0.0	8.087501525878906	2.421468734741211	-802.4810180664062	-0.0	-0.0	-0.0	-0.0	-0.0	-0.0	275667.78125	-25112.009765625	2646.466552734375
0.363	-0.0	-0.0	-0.0	-0.0	-0.0	-0.0	8.642012596130371	2.4842019081115723	-799.8047485351562	-0.0	-0.0	-0.0	-0.0	-0.0	-0.0	275230.8125	-25305.037109375	2756.898193359375
0.3635	-0.0	-0.0	-0.0	-0.0	-0.0	-0.0	9.02272605895996	2.6126515865325928	-798.712646484375	-0.0	-0.0	-0.0	-0.0	-0.0	-0.0	275063.40625	-25378.234375	2956.2470703125
0.364	-0.0	-0.0	-0.0	-0.0	-0.0	-0.0	9.314632415771484	2.4614531993865967	-799.0155639648438	-0.0	-0.0	-0.0	-0.0	-0.0	-0.0	274318.1875	-25635.642578125	3160.232421875
0.3645	-0.0	-0.0	-0.0	-0.0	-0.0	-0.0	9.492053985595703	2.486851692199707	-796.9111938476562	-0.0	-0.0	-0.0	-0.0	-0.0	-0.0	274126.0	-25932.416015625	3143.91357421875
0.365	-0.0	-0.0	-0.0	-0.0	-0.0	-0.0	9.834967613220217	2.41016697883606	-794.21923828125	-0.0	-0.0	-0.0	-0.0	-0.0	-0.0	273374.34375	-25938.705078125	3279.20947265625
0.3655	-0.0	-0.0	-0.0	-0.0	-0.0	-0.0	10.02431869506836	2.2963638305664062	-791.1296997070312	-0.0	-0.0	-0.0	-0.0	-0.0	-0.0	272586.40625	-26062.1484375	3508.0693359375
0.366	-0.0	-0.0	-0.0	-0.0	-0.0	-0.0	10.214030265808104	1.943077087402344	-789.6807250976562	-0.0	-0.0	-0.0	-0.0	-0.0	-0.0	272039.625	-25686.2890625	3707.244384765625
0.3665	-0.0	-0.0	-0.0	-0.0	-0.0	-0.0	9.758186340332031	2.119335889816284	-787.63525390625	-0.0	-0.0	-0.0	-0.0	-0.0	-0.0	271160.40625	-25720.513671875	3554.357666015625
0.367	-0.0	-0.0	-0.0	-0.0	-0.0	-0.0	8.528923988342285	1.7159388065338137	-786.4390869140625	-0.0	-0.0	-0.0	-0.0	-0.0	-0.0	270682.09375	-25556.0078125	3231.408203125
0.3675	-0.0	-0.0	-0.0	-0.0	-0.0	-0.0	7.958677768707275	2.018992185592652	-784.7932739257812	-0.0	-0.0	-0.0	-0.0	-0.0	-0.0	270013.375	-25139.048828125	3082.775390625
0.368	-0.0	-0.0	-0.0	-0.0	-0.0	-0.0	7.540416717529297	2.321473836898804	-783.4962158203125	-0.0	-0.0	-0.0	-0.0	-0.0	-0.0	269505.71875	-25362.505859375	3070.075439453125
0.3685	-0.0	-0.0	-0.0	-0.0	-0.0	-0.0	7.274284362792969	2.4980688095092773	-781.4060668945312	-0.0	-0.0	-0.0	-0.0	-0.0	-0.0	268880.84375	-25035.93359375	2861.97314453125
0.369	-0.0	-0.0	-0.0	-0.0	-0.0	-0.0	7.4132184982299805	2.699653625488281	-780.2550659179688	-0.0	-0.0	-0.0	-0.0	-0.0	-0.0	268623.375	-25212.669921875	3005.950439453125
0.3695	-0.0	-0.0	-0.0	-0.0	-0.0	-0.0	8.034049034118652	3.811366081237793	-779.6105346679688	-0.0	-0.0	-0.0	-0.0	-0.0	-0.0	268383.46875	-25095.1875	3223.31640625
0.37	-0.0	-0.0	-0.0	-0.0	-0.0	-0.0	7.970232486724853	4.051594257354736	-778.2048950195312	-0.0	-0.0	-0.0	-0.0	-0.0	-0.0	268464.09375	-25006.55859375	3414.29931640625
0.3705	-0.0	-0.0	-0.0	-0.0	-0.0	-0.0	8.693656921386719	4.653260231018066	-775.9678955078125	-0.0	-0.0	-0.0	-0.0	-0.0	-0.0	267985.96875	-25050.646484375	3605.046142578125
0.371	-0.0	-0.0	-0.0	-0.0	-0.0	-0.0	8.910073280334473	5.161481380462647	-776.51318359375	-0.0	-0.0	-0.0	-0.0	-0.0	-0.0	267427.75	-24822.11328125	3672.94921875
0.3715	-0.0	-0.0	-0.0	-0.0	-0.0	-0.0	9.378533363342283	5.249898433685303	-775.61962890625	-0.0	-0.0	-0.0	-0.0	-0.0	-0.0	267495.96875	-24938.353515625	3783.6328125
0.372	-0.0	-0.0	-0.0	-0.0	-0.0	-0.0	9.477556228637695	5.215219020843506	-776.1237182617188	-0.0	-0.0	-0.0	-0.0	-0.0	-0.0	267493.40625	-24816.404296875	3983.046630859375
0.3725	-0.0	-0.0	-0.0	-0.0	-0.0	-0.0	9.669475555419922	5.13723611831665	-775.2713623046875	-0.0	-0.0	-0.0	-0.0	-0.0	-0.0	267163.71875	-24647.6796875	3999.6748046875
0.373	-0.0	-0.0	-0.0	-0.0	-0.0	-0.0	8.880884170532227	4.7203288078308105	-773.7972412109375	-0.0	-0.0	-0.0	-0.0	-0.0	-0.0	266694.125	-24475.08203125	3847.36865234375
0.3735	-0.0	-0.0	-0.0	-0.0	-0.0	-0.0	8.852046966552734	4.735448360443115	-771.587646484375	-0.0	-0.0	-0.0	-0.0	-0.0	-0.0	266156.25	-24105.767578125	3626.51123046875
